# Blender v2.78 (sub 0) OBJ File: 'CHAHIN_BOWLING_PIN.blend'
# www.blender.org
mtllib CHAHIN_BOWLING_PIN.mtl
o BOWLING_PIN_Cube.034
v -0.157354 -0.061008 0.157354
v -0.157354 0.216460 0.157354
v -0.157354 -0.061008 -0.157354
v -0.157354 0.216460 -0.157354
v 0.157354 -0.061008 0.157354
v 0.157354 0.216460 0.157354
v 0.157354 -0.061008 -0.157354
v 0.157354 0.216460 -0.157354
v -0.115409 -0.535851 -0.115409
v -0.115409 -0.535851 0.115409
v 0.115409 -0.535851 -0.115409
v 0.115409 -0.535851 0.115409
v -0.071694 0.384401 0.071694
v -0.071694 0.384401 -0.071694
v 0.071694 0.384401 -0.071694
v 0.071694 0.384401 0.071694
v -0.071694 0.595511 0.071694
v -0.071694 0.595511 -0.071694
v 0.071694 0.595511 -0.071694
v 0.071694 0.595511 0.071694
v -0.057291 0.931951 0.057291
v -0.057291 0.931951 -0.057291
v 0.057291 0.931951 -0.057291
v 0.057291 0.931951 0.057291
v 0.085593 0.796764 0.085593
v -0.085593 0.796764 0.085593
v -0.085593 0.796764 -0.085593
v 0.085593 0.796764 -0.085593
v -0.211763 -0.061008 -0.000000
v -0.211763 0.216460 -0.000000
v 0.211763 -0.061008 -0.000000
v 0.211763 0.216460 -0.000000
v -0.155314 -0.535851 -0.000000
v 0.155314 -0.535851 -0.000000
v -0.096484 0.384401 -0.000000
v 0.096484 0.384401 -0.000000
v -0.096484 0.595511 -0.000000
v 0.096484 0.595511 -0.000000
v -0.077100 0.931951 -0.000000
v 0.077101 0.931951 -0.000000
v -0.115189 0.796764 -0.000000
v 0.115189 0.796764 -0.000000
v 0.000000 -0.061008 -0.211763
v 0.000000 0.216460 -0.211763
v 0.000000 -0.061008 0.211763
v 0.000000 0.216460 0.211763
v 0.000000 -0.535851 -0.155314
v 0.000000 -0.535851 0.155314
v 0.000000 0.384401 -0.096484
v 0.000000 0.384401 0.096484
v 0.000000 0.595511 -0.096484
v 0.000000 0.595511 0.096484
v 0.000000 0.931951 -0.077101
v 0.000000 0.931951 0.077100
v 0.000000 0.796764 -0.115189
v 0.000000 0.796764 0.115189
v 0.000000 0.931951 -0.000000
v 0.000000 -0.535851 -0.000000
v -0.071694 0.384401 0.071694
v -0.071694 0.384401 -0.071694
v 0.071694 0.384401 -0.071694
v 0.071694 0.384401 0.071694
v -0.071694 0.595511 0.071694
v -0.071694 0.595511 -0.071694
v 0.071694 0.595511 -0.071694
v 0.071694 0.595511 0.071694
v -0.096484 0.384401 -0.000000
v 0.096484 0.384401 -0.000000
v -0.096484 0.595511 -0.000000
v 0.096484 0.595511 -0.000000
v 0.000000 0.384401 -0.096484
v 0.000000 0.384401 0.096484
v 0.000000 0.595511 -0.096484
v 0.000000 0.595511 0.096484
vt 0.3408 0.6885
vt 0.3408 0.6008
vt 0.3964 0.6008
vt 0.3964 0.6885
vt 0.6509 0.6968
vt 0.6509 0.7844
vt 0.5952 0.7844
vt 0.5952 0.6968
vt 0.4402 0.6885
vt 0.4402 0.6008
vt 0.4958 0.6008
vt 0.4958 0.6885
vt 0.5515 0.6968
vt 0.5515 0.7844
vt 0.4958 0.7844
vt 0.4958 0.6968
vt 0.3878 0.8382
vt 0.3470 0.8382
vt 0.5952 0.7849
vt 0.5588 0.8382
vt 0.5389 0.8379
vt 0.3461 0.8854
vt 0.2971 0.8690
vt 0.3223 0.8382
vt 0.3631 0.8382
vt 0.4872 0.8382
vt 0.4464 0.8382
vt 0.5045 0.5471
vt 0.5453 0.5471
vt 0.6039 0.5471
vt 0.6447 0.5471
vt 0.6946 0.7849
vt 0.6582 0.8382
vt 0.6383 0.8379
vt 0.3964 0.6003
vt 0.4329 0.5471
vt 0.4528 0.5473
vt 0.2971 0.6003
vt 0.3335 0.5471
vt 0.3534 0.5473
vt 0.5335 0.9016
vt 0.5573 0.9018
vt 0.5455 0.9446
vt 0.5296 0.9445
vt 0.6358 0.8616
vt 0.6273 0.8850
vt 0.6114 0.8730
vt 0.6114 0.8535
vt 0.5876 0.9016
vt 0.6114 0.9018
vt 0.5996 0.9446
vt 0.5837 0.9445
vt 0.4795 0.9016
vt 0.5033 0.9018
vt 0.4915 0.9446
vt 0.4756 0.9445
vt 0.4254 0.9016
vt 0.4492 0.9018
vt 0.4374 0.9446
vt 0.4215 0.9445
vt 0.4230 0.8382
vt 0.4430 0.8383
vt 0.4771 0.8382
vt 0.4970 0.8383
vt 0.5852 0.8382
vt 0.6052 0.8383
vt 0.5312 0.8382
vt 0.5511 0.8383
vt 0.4518 0.8383
vt 0.4492 0.9018
vt 0.3977 0.8383
vt 0.3952 0.9018
vt 0.4012 0.9446
vt 0.4553 0.9446
vt 0.6601 0.8697
vt 0.6476 0.8850
vt 0.3787 0.5473
vt 0.4781 0.5473
vt 0.3964 0.6880
vt 0.4143 0.8378
vt 0.3291 0.9326
vt 0.2971 0.9083
vt 0.2971 0.6880
vt 0.3149 0.8378
vt 0.3700 0.9326
vt 0.3952 0.9017
vt 0.6601 0.8502
vt 0.6442 0.8382
vt 0.5058 0.8383
vt 0.5033 0.9018
vt 0.5599 0.8383
vt 0.5573 0.9018
vt 0.5634 0.9446
vt 0.6239 0.8382
vt 0.5094 0.9446
vt 0.6129 0.8379
vt 0.6946 0.6972
vt 0.6768 0.5474
vt 0.5952 0.6973
vt 0.5774 0.5474
vt 0.3952 0.8624
vt 0.5135 0.8379
vt 0.6076 0.2500
vt 0.5486 0.2500
vt 0.5486 0.0918
vt 0.6076 0.0918
vt 0.5021 0.2500
vt 0.4431 0.2500
vt 0.4431 0.0918
vt 0.5021 0.0918
vt 0.3966 0.2500
vt 0.3376 0.2500
vt 0.3376 0.0918
vt 0.3966 0.0918
vt 0.3840 0.2500
vt 0.4431 0.2500
vt 0.4431 0.4082
vt 0.3840 0.4082
vt 0.5486 0.2500
vt 0.5486 0.0918
vt 0.6541 0.2500
vt 0.6541 0.0918
vt 0.3376 0.2500
vt 0.3376 0.4082
vn -0.9451 0.0000 -0.3268
vn 0.3268 0.0000 -0.9451
vn 0.9451 0.0000 0.3268
vn -0.3268 0.0000 0.9451
vn -0.9392 -0.1116 -0.3247
vn 0.2742 0.5442 0.7929
vn -0.0000 -1.0000 -0.0000
vn 0.9392 -0.1116 0.3247
vn -0.3247 -0.1116 0.9392
vn 0.3247 -0.1116 -0.9392
vn -0.2742 0.5442 -0.7929
vn 0.7929 0.5442 -0.2742
vn -0.7929 0.5442 0.2742
vn 0.3158 0.2573 0.9133
vn 0.0000 1.0000 -0.0000
vn -0.3158 0.2573 -0.9133
vn 0.9133 0.2573 -0.3158
vn -0.9133 0.2573 0.3158
vn -0.9415 -0.0875 0.3255
vn 0.9415 -0.0875 -0.3255
vn -0.3255 -0.0875 -0.9415
vn 0.3255 -0.0875 0.9415
vn 0.9415 -0.0875 0.3255
vn -0.9415 -0.0875 -0.3255
vn -0.9133 0.2573 -0.3158
vn 0.9133 0.2573 0.3158
vn -0.7929 0.5442 -0.2742
vn 0.7929 0.5442 0.2742
vn 0.9392 -0.1116 -0.3247
vn -0.9392 -0.1116 0.3247
vn 0.9451 0.0000 -0.3268
vn -0.9451 0.0000 0.3268
vn -0.3255 -0.0875 0.9415
vn 0.3255 -0.0875 -0.9415
vn 0.3158 0.2573 -0.9133
vn -0.3158 0.2573 0.9133
vn 0.2742 0.5442 -0.7929
vn -0.3247 -0.1116 -0.9392
vn 0.3247 -0.1116 0.9392
vn -0.2742 0.5442 0.7929
vn 0.3268 0.0000 0.9451
vn -0.3268 0.0000 -0.9451
usemtl Material.003
s off
f 29/1/1 30/2/1 4/3/1 3/4/1
f 43/5/2 44/6/2 8/7/2 7/8/2
f 31/9/3 32/10/3 6/11/3 5/12/3
f 45/13/4 46/14/4 2/15/4 1/16/4
f 29/1/5 3/4/5 9/17/5 33/18/5
f 46/14/6 6/19/6 16/20/6 50/21/6
f 58/22/7 34/23/7 12/24/7 48/25/7
f 31/9/8 5/12/8 12/26/8 34/27/8
f 45/13/9 1/16/9 10/28/9 48/29/9
f 43/5/10 7/8/10 11/30/10 47/31/10
f 44/6/11 4/32/11 14/33/11 49/34/11
f 32/10/12 8/35/12 15/36/12 36/37/12
f 30/2/13 2/38/13 13/39/13 35/40/13
f 56/41/14 25/42/14 24/43/14 54/44/14
f 57/45/15 39/46/15 21/47/15 54/48/15
f 55/49/16 27/50/16 22/51/16 53/52/16
f 42/53/17 28/54/17 23/55/17 40/56/17
f 41/57/18 26/58/18 21/59/18 39/60/18
f 37/61/19 17/62/19 26/58/19 41/57/19
f 38/63/20 19/64/20 28/54/20 42/53/20
f 51/65/21 18/66/21 27/50/21 55/49/21
f 52/67/22 20/68/22 25/42/22 56/41/22
f 20/69/23 38/63/23 42/53/23 25/70/23
f 18/71/24 37/61/24 41/57/24 27/72/24
f 27/72/25 41/57/25 39/60/25 22/73/25
f 25/70/26 42/53/26 40/56/26 24/74/26
f 53/75/15 22/76/15 39/46/15 57/45/15
f 4/3/27 30/2/27 35/40/27 14/77/27
f 6/11/28 32/10/28 36/37/28 16/78/28
f 7/79/29 31/9/29 34/27/29 11/80/29
f 47/81/7 11/82/7 34/23/7 58/22/7
f 1/83/30 29/1/30 33/18/30 10/84/30
f 7/79/31 8/35/31 32/10/31 31/9/31
f 1/83/32 2/38/32 30/2/32 29/1/32
f 9/85/7 47/81/7 58/22/7 33/86/7
f 23/87/15 53/75/15 57/45/15 40/88/15
f 17/89/33 52/67/33 56/41/33 26/90/33
f 19/91/34 51/65/34 55/49/34 28/92/34
f 28/92/35 55/49/35 53/52/35 23/93/35
f 40/88/15 57/45/15 54/48/15 24/94/15
f 26/90/36 56/41/36 54/44/36 21/95/36
f 8/7/37 44/6/37 49/34/37 15/96/37
f 3/97/38 43/5/38 47/31/38 9/98/38
f 5/99/39 45/13/39 48/29/39 12/100/39
f 33/86/7 58/22/7 48/25/7 10/101/7
f 2/15/40 46/14/40 50/21/40 13/102/40
f 5/99/41 6/19/41 46/14/41 45/13/41
f 3/97/42 4/32/42 44/6/42 43/5/42
usemtl Material.009
f 68/103/31 61/104/31 65/105/31 70/106/31
f 67/107/32 59/108/32 63/109/32 69/110/32
f 72/111/41 62/112/41 66/113/41 74/114/41
f 71/115/42 60/116/42 64/117/42 73/118/42
f 60/119/1 67/107/1 69/110/1 64/120/1
f 62/121/3 68/103/3 70/106/3 66/122/3
f 61/123/2 71/115/2 73/118/2 65/124/2
f 59/108/4 72/111/4 74/114/4 63/109/4
